<svg xmlns="http://www.w3.org/2000/svg" width="24" height="24" viewBox="10 10 76 76" fill="currentColor"><path d="M23 49.7L24.4 49.8L26.3 50.1L28.3 50.5L30.1 51.2L31.9 51.9L33.7 52.8L35.3 53.8L36.9 55L38.4 56.3L39.8 57.6L41.1 59.2L42.2 60.7L43.2 62.4L44.1 64.2L44.9 65.9L45.5 67.8L45.9 69.8L46.2 71.7L46.3 72.8L46.3 73.1L46.1 74.1L45.7 74.6L44.9 75.2L44.5 75.4L43.7 75.6L23.1 75.6L22.7 75.5L21.8 75.2L21.2 74.7L20.5 73.4L20.4 72.9L20.4 52.3L20.5 52L20.8 51L21.2 50.5L22 49.9L22.5 49.7ZM73.1 49.7L74.1 49.9L74.6 50.3L75.2 51.1L75.4 51.5L75.6 52.3L75.6 72.9L75.5 73.3L75.2 74.2L74.7 74.8L73.4 75.5L72.9 75.6L52.3 75.6L52 75.5L51 75.2L50.5 74.8L49.9 74L49.7 73.5L49.7 72.6L49.9 70.6L50.3 68.7L50.8 66.8L51.5 65L52.4 63.2L53.3 61.5L54.4 59.8L55.6 58.3L56.9 56.9L58.4 55.6L59.9 54.3L61.6 53.2L63.2 52.3L65.1 51.5L66.9 50.8L68.8 50.3L70.7 49.9L72.8 49.7ZM44 20.5L45 20.8L45.5 21.2L46.1 22L46.3 22.5L46.3 23.4L46.1 25.4L45.7 27.3L45.2 29.2L44.5 31L43.6 32.8L42.7 34.5L41.6 36.2L40.4 37.7L39.1 39.1L37.6 40.4L36.1 41.7L34.4 42.8L32.8 43.7L30.9 44.5L29.1 45.2L27.2 45.7L25.3 46.1L23.2 46.3L22.9 46.3L21.9 46.1L21.4 45.7L20.8 44.9L20.6 44.5L20.4 43.7L20.4 23.1L20.5 22.7L20.8 21.8L21.3 21.2L22.6 20.5L23.1 20.4L43.7 20.4ZM73.3 20.5L74.2 20.8L74.8 21.3L75.5 22.6L75.6 23.1L75.6 43.7L75.5 44L75.2 45L74.8 45.5L74 46.1L73.5 46.3L72.6 46.3L70.6 46.1L68.7 45.7L66.8 45.2L65 44.5L63.2 43.6L61.5 42.7L59.8 41.6L58.3 40.4L56.9 39.1L55.6 37.6L54.3 36.1L53.2 34.4L52.3 32.7L51.5 30.9L50.8 29.1L50.3 27.2L49.9 25.3L49.7 23.2L49.7 22.9L49.9 21.9L50.3 21.4L51.1 20.8L51.5 20.6L52.3 20.4L72.9 20.4Z"/></svg>
